{
	"patcher" : 	{
		"fileversion" : 1,
		"appversion" : 		{
			"major" : 8,
			"minor" : 6,
			"revision" : 1,
			"architecture" : "x64",
			"modernui" : 1
		}
,
		"classnamespace" : "rnbo",
		"rect" : [ 340.0, 152.0, 1387.0, 604.0 ],
		"bglocked" : 0,
		"openinpresentation" : 0,
		"default_fontsize" : 12.0,
		"default_fontface" : 0,
		"default_fontname" : "Lato",
		"gridonopen" : 1,
		"gridsize" : [ 15.0, 15.0 ],
		"gridsnaponopen" : 1,
		"objectsnaponopen" : 1,
		"statusbarvisible" : 2,
		"toolbarvisible" : 1,
		"lefttoolbarpinned" : 0,
		"toptoolbarpinned" : 0,
		"righttoolbarpinned" : 0,
		"bottomtoolbarpinned" : 0,
		"toolbars_unpinned_last_save" : 0,
		"tallnewobj" : 0,
		"boxanimatetime" : 200,
		"enablehscroll" : 1,
		"enablevscroll" : 1,
		"devicewidth" : 0.0,
		"description" : "",
		"digest" : "",
		"tags" : "",
		"style" : "",
		"subpatcher_template" : "",
		"assistshowspatchername" : 0,
		"title" : "brickBP",
		"boxes" : [ 			{
				"box" : 				{
					"id" : "obj-43",
					"maxclass" : "newobj",
					"numinlets" : 2,
					"numoutlets" : 2,
					"outlettype" : [ "", "" ],
					"patching_rect" : [ 1091.0, 41.0, 195.0, 23.0 ],
					"rnbo_classname" : "param",
					"rnbo_extra_attributes" : 					{
						"fromnormalized" : "",
						"steps" : 0.0,
						"enum" : "",
						"unit" : "",
						"meta" : "",
						"preset" : 1,
						"order" : "0",
						"displayname" : "",
						"displayorder" : "-",
						"sendinit" : 1,
						"exponent" : 1.0,
						"ctlin" : 0.0,
						"tonormalized" : ""
					}
,
					"rnbo_serial" : 8,
					"rnbo_uniqueid" : "f2",
					"rnboinfo" : 					{
						"needsInstanceInfo" : 1,
						"argnames" : 						{
							"value" : 							{
								"attrOrProp" : 2,
								"digest" : "Set initial value",
								"defaultarg" : 2,
								"isalias" : 0,
								"aliases" : [  ],
								"settable" : 1,
								"attachable" : 0,
								"isparam" : 0,
								"deprecated" : 0,
								"type" : "number",
								"defaultValue" : "0",
								"label" : "Initial Value",
								"displayorder" : 3
							}
,
							"normalizedvalue" : 							{
								"attrOrProp" : 1,
								"digest" : "Set value normalized. ",
								"isalias" : 0,
								"aliases" : [  ],
								"attachable" : 0,
								"isparam" : 0,
								"deprecated" : 0,
								"inlet" : 1,
								"type" : "number"
							}
,
							"reset" : 							{
								"attrOrProp" : 1,
								"digest" : "Reset param to initial value",
								"isalias" : 0,
								"aliases" : [  ],
								"attachable" : 1,
								"isparam" : 0,
								"deprecated" : 0,
								"type" : "bang"
							}
,
							"normalized" : 							{
								"attrOrProp" : 1,
								"digest" : "Normalized parameter value.",
								"isalias" : 0,
								"aliases" : [  ],
								"attachable" : 0,
								"isparam" : 0,
								"deprecated" : 0,
								"outlet" : 1,
								"type" : "number"
							}
,
							"name" : 							{
								"attrOrProp" : 2,
								"digest" : "Name of the parameter",
								"defaultarg" : 1,
								"isalias" : 0,
								"aliases" : [  ],
								"settable" : 1,
								"attachable" : 0,
								"isparam" : 0,
								"deprecated" : 0,
								"type" : "symbol",
								"label" : "Parameter Name",
								"mandatory" : 1
							}
,
							"enum" : 							{
								"attrOrProp" : 2,
								"digest" : "Use an enumerated output",
								"isalias" : 0,
								"aliases" : [  ],
								"settable" : 1,
								"attachable" : 0,
								"isparam" : 0,
								"deprecated" : 0,
								"type" : "list",
								"label" : "Enum Values",
								"displayorder" : 6
							}
,
							"minimum" : 							{
								"attrOrProp" : 2,
								"digest" : "Minimum value",
								"isalias" : 0,
								"aliases" : [ "min" ],
								"settable" : 1,
								"attachable" : 0,
								"isparam" : 0,
								"deprecated" : 0,
								"type" : "number",
								"defaultValue" : "0",
								"label" : "Minimum",
								"displayorder" : 1
							}
,
							"min" : 							{
								"attrOrProp" : 2,
								"digest" : "Minimum value",
								"isalias" : 1,
								"aliasOf" : "minimum",
								"aliases" : [  ],
								"settable" : 1,
								"attachable" : 0,
								"isparam" : 0,
								"deprecated" : 0,
								"type" : "number",
								"defaultValue" : "0",
								"label" : "Minimum",
								"displayorder" : 1
							}
,
							"maximum" : 							{
								"attrOrProp" : 2,
								"digest" : "Maximum value",
								"isalias" : 0,
								"aliases" : [ "max" ],
								"settable" : 1,
								"attachable" : 0,
								"isparam" : 0,
								"deprecated" : 0,
								"type" : "number",
								"defaultValue" : "1",
								"label" : "Maximum",
								"displayorder" : 2
							}
,
							"max" : 							{
								"attrOrProp" : 2,
								"digest" : "Maximum value",
								"isalias" : 1,
								"aliasOf" : "maximum",
								"aliases" : [  ],
								"settable" : 1,
								"attachable" : 0,
								"isparam" : 0,
								"deprecated" : 0,
								"type" : "number",
								"defaultValue" : "1",
								"label" : "Maximum",
								"displayorder" : 2
							}
,
							"exponent" : 							{
								"attrOrProp" : 2,
								"digest" : "Scale values exponentially",
								"isalias" : 0,
								"aliases" : [  ],
								"settable" : 1,
								"attachable" : 0,
								"isparam" : 0,
								"deprecated" : 0,
								"type" : "number",
								"defaultValue" : "1",
								"label" : "Exponent",
								"displayorder" : 7
							}
,
							"steps" : 							{
								"attrOrProp" : 2,
								"digest" : "Divide the output into a number of discrete steps",
								"isalias" : 0,
								"aliases" : [  ],
								"settable" : 1,
								"attachable" : 0,
								"isparam" : 0,
								"deprecated" : 0,
								"type" : "number",
								"defaultValue" : "0",
								"label" : "Steps",
								"displayorder" : 8
							}
,
							"displayName" : 							{
								"attrOrProp" : 2,
								"digest" : "DEPRECATED: Use the lower case 'displayname' instead",
								"isalias" : 0,
								"aliases" : [  ],
								"settable" : 1,
								"attachable" : 0,
								"isparam" : 0,
								"deprecated" : 1,
								"type" : "symbol",
								"label" : "Display Name"
							}
,
							"displayname" : 							{
								"attrOrProp" : 2,
								"digest" : "A more readable name for the parameter in an external RNBO target",
								"isalias" : 0,
								"aliases" : [  ],
								"settable" : 1,
								"attachable" : 0,
								"isparam" : 0,
								"deprecated" : 0,
								"type" : "symbol",
								"defaultValue" : "",
								"label" : "Display Name",
								"displayorder" : 14
							}
,
							"unit" : 							{
								"attrOrProp" : 2,
								"digest" : "A symbol to describe the unit of the parameter in an external RNBO target",
								"isalias" : 0,
								"aliases" : [  ],
								"settable" : 1,
								"attachable" : 0,
								"isparam" : 0,
								"deprecated" : 0,
								"type" : "symbol",
								"defaultValue" : "",
								"label" : "Unit",
								"displayorder" : 15
							}
,
							"tonormalized" : 							{
								"attrOrProp" : 2,
								"digest" : "Converts a real parameter value to its normalized form.",
								"isalias" : 0,
								"aliases" : [  ],
								"settable" : 1,
								"attachable" : 0,
								"isparam" : 0,
								"deprecated" : 0,
								"type" : "symbol",
								"label" : "To Normalized Expression",
								"displayorder" : 10
							}
,
							"fromnormalized" : 							{
								"attrOrProp" : 2,
								"digest" : "Converts a normalized parameter into its actual parameter value.",
								"isalias" : 0,
								"aliases" : [  ],
								"settable" : 1,
								"attachable" : 0,
								"isparam" : 0,
								"deprecated" : 0,
								"type" : "symbol",
								"label" : "From Normalized Expression",
								"displayorder" : 9
							}
,
							"order" : 							{
								"attrOrProp" : 2,
								"digest" : "Order in which initial parameter values will be sent out on patcher load. The order can be numeric or symbolic ('first' and 'last')",
								"isalias" : 0,
								"aliases" : [  ],
								"settable" : 1,
								"attachable" : 0,
								"isparam" : 0,
								"deprecated" : 0,
								"type" : "symbol",
								"defaultValue" : "0",
								"label" : "Restore Order",
								"displayorder" : 12
							}
,
							"displayorder" : 							{
								"attrOrProp" : 2,
								"digest" : "Order in which parameters will show up in a list of all parameters. The order can be numeric or symbolic ('first' and 'last')",
								"isalias" : 0,
								"aliases" : [  ],
								"settable" : 1,
								"attachable" : 0,
								"isparam" : 0,
								"deprecated" : 0,
								"type" : "symbol",
								"defaultValue" : "-",
								"label" : "Display Order",
								"displayorder" : 13
							}
,
							"sendinit" : 							{
								"attrOrProp" : 2,
								"digest" : "Send initial value",
								"isalias" : 0,
								"aliases" : [  ],
								"settable" : 1,
								"attachable" : 0,
								"isparam" : 0,
								"deprecated" : 0,
								"type" : "bool",
								"defaultValue" : "true",
								"label" : "Send Init",
								"displayorder" : 4
							}
,
							"ctlin" : 							{
								"attrOrProp" : 2,
								"digest" : "MIDI controller number to control this parameter.",
								"isalias" : 0,
								"aliases" : [  ],
								"settable" : 1,
								"attachable" : 0,
								"isparam" : 0,
								"deprecated" : 0,
								"type" : "number",
								"label" : "MIDI Controller Number.",
								"displayorder" : 16
							}
,
							"meta" : 							{
								"attrOrProp" : 2,
								"digest" : "A JSON formatted string containing metadata for use by the exported code",
								"isalias" : 0,
								"aliases" : [  ],
								"settable" : 1,
								"attachable" : 0,
								"isparam" : 0,
								"deprecated" : 0,
								"type" : "symbol",
								"defaultValue" : "",
								"label" : "Metadata",
								"displayorder" : 17
							}
,
							"nopreset" : 							{
								"attrOrProp" : 2,
								"digest" : "Do not add this value to the preset [DEPRECATED - USE @preset 0 instead].",
								"isalias" : 0,
								"aliases" : [  ],
								"settable" : 1,
								"attachable" : 0,
								"isparam" : 0,
								"deprecated" : 1,
								"type" : "bool",
								"defaultValue" : "false"
							}
,
							"preset" : 							{
								"attrOrProp" : 2,
								"digest" : "Add this value to the preset.",
								"isalias" : 0,
								"aliases" : [  ],
								"settable" : 1,
								"attachable" : 0,
								"isparam" : 0,
								"deprecated" : 0,
								"type" : "bool",
								"defaultValue" : "true",
								"label" : "Include In Preset",
								"displayorder" : 11
							}

						}
,
						"inputs" : [ 							{
								"name" : "value",
								"type" : "number",
								"digest" : "Parameter value",
								"hot" : 1,
								"docked" : 0
							}
, 							{
								"name" : "normalizedvalue",
								"type" : "number",
								"digest" : "Set value normalized. ",
								"docked" : 0
							}
 ],
						"outputs" : [ 							{
								"name" : "value",
								"type" : "number",
								"digest" : "Parameter value",
								"hot" : 1,
								"docked" : 0
							}
, 							{
								"name" : "normalized",
								"type" : "number",
								"digest" : "Normalized parameter value.",
								"docked" : 0
							}
 ],
						"helpname" : "param",
						"aliasOf" : "param",
						"classname" : "param",
						"operator" : 0,
						"versionId" : -1940971094,
						"changesPatcherIO" : 0
					}
,
					"text" : "param f2 300 @min 0 @max 48000",
					"varname" : "f2"
				}

			}
, 			{
				"box" : 				{
					"id" : "obj-42",
					"maxclass" : "newobj",
					"numinlets" : 2,
					"numoutlets" : 2,
					"outlettype" : [ "", "" ],
					"patching_rect" : [ 1060.0, 16.0, 188.0, 23.0 ],
					"rnbo_classname" : "param",
					"rnbo_extra_attributes" : 					{
						"fromnormalized" : "",
						"steps" : 0.0,
						"enum" : "",
						"unit" : "",
						"meta" : "",
						"preset" : 1,
						"order" : "0",
						"displayname" : "",
						"displayorder" : "-",
						"sendinit" : 1,
						"exponent" : 1.0,
						"ctlin" : 0.0,
						"tonormalized" : ""
					}
,
					"rnbo_serial" : 7,
					"rnbo_uniqueid" : "f1",
					"rnboinfo" : 					{
						"needsInstanceInfo" : 1,
						"argnames" : 						{
							"value" : 							{
								"attrOrProp" : 2,
								"digest" : "Set initial value",
								"defaultarg" : 2,
								"isalias" : 0,
								"aliases" : [  ],
								"settable" : 1,
								"attachable" : 0,
								"isparam" : 0,
								"deprecated" : 0,
								"type" : "number",
								"defaultValue" : "0",
								"label" : "Initial Value",
								"displayorder" : 3
							}
,
							"normalizedvalue" : 							{
								"attrOrProp" : 1,
								"digest" : "Set value normalized. ",
								"isalias" : 0,
								"aliases" : [  ],
								"attachable" : 0,
								"isparam" : 0,
								"deprecated" : 0,
								"inlet" : 1,
								"type" : "number"
							}
,
							"reset" : 							{
								"attrOrProp" : 1,
								"digest" : "Reset param to initial value",
								"isalias" : 0,
								"aliases" : [  ],
								"attachable" : 1,
								"isparam" : 0,
								"deprecated" : 0,
								"type" : "bang"
							}
,
							"normalized" : 							{
								"attrOrProp" : 1,
								"digest" : "Normalized parameter value.",
								"isalias" : 0,
								"aliases" : [  ],
								"attachable" : 0,
								"isparam" : 0,
								"deprecated" : 0,
								"outlet" : 1,
								"type" : "number"
							}
,
							"name" : 							{
								"attrOrProp" : 2,
								"digest" : "Name of the parameter",
								"defaultarg" : 1,
								"isalias" : 0,
								"aliases" : [  ],
								"settable" : 1,
								"attachable" : 0,
								"isparam" : 0,
								"deprecated" : 0,
								"type" : "symbol",
								"label" : "Parameter Name",
								"mandatory" : 1
							}
,
							"enum" : 							{
								"attrOrProp" : 2,
								"digest" : "Use an enumerated output",
								"isalias" : 0,
								"aliases" : [  ],
								"settable" : 1,
								"attachable" : 0,
								"isparam" : 0,
								"deprecated" : 0,
								"type" : "list",
								"label" : "Enum Values",
								"displayorder" : 6
							}
,
							"minimum" : 							{
								"attrOrProp" : 2,
								"digest" : "Minimum value",
								"isalias" : 0,
								"aliases" : [ "min" ],
								"settable" : 1,
								"attachable" : 0,
								"isparam" : 0,
								"deprecated" : 0,
								"type" : "number",
								"defaultValue" : "0",
								"label" : "Minimum",
								"displayorder" : 1
							}
,
							"min" : 							{
								"attrOrProp" : 2,
								"digest" : "Minimum value",
								"isalias" : 1,
								"aliasOf" : "minimum",
								"aliases" : [  ],
								"settable" : 1,
								"attachable" : 0,
								"isparam" : 0,
								"deprecated" : 0,
								"type" : "number",
								"defaultValue" : "0",
								"label" : "Minimum",
								"displayorder" : 1
							}
,
							"maximum" : 							{
								"attrOrProp" : 2,
								"digest" : "Maximum value",
								"isalias" : 0,
								"aliases" : [ "max" ],
								"settable" : 1,
								"attachable" : 0,
								"isparam" : 0,
								"deprecated" : 0,
								"type" : "number",
								"defaultValue" : "1",
								"label" : "Maximum",
								"displayorder" : 2
							}
,
							"max" : 							{
								"attrOrProp" : 2,
								"digest" : "Maximum value",
								"isalias" : 1,
								"aliasOf" : "maximum",
								"aliases" : [  ],
								"settable" : 1,
								"attachable" : 0,
								"isparam" : 0,
								"deprecated" : 0,
								"type" : "number",
								"defaultValue" : "1",
								"label" : "Maximum",
								"displayorder" : 2
							}
,
							"exponent" : 							{
								"attrOrProp" : 2,
								"digest" : "Scale values exponentially",
								"isalias" : 0,
								"aliases" : [  ],
								"settable" : 1,
								"attachable" : 0,
								"isparam" : 0,
								"deprecated" : 0,
								"type" : "number",
								"defaultValue" : "1",
								"label" : "Exponent",
								"displayorder" : 7
							}
,
							"steps" : 							{
								"attrOrProp" : 2,
								"digest" : "Divide the output into a number of discrete steps",
								"isalias" : 0,
								"aliases" : [  ],
								"settable" : 1,
								"attachable" : 0,
								"isparam" : 0,
								"deprecated" : 0,
								"type" : "number",
								"defaultValue" : "0",
								"label" : "Steps",
								"displayorder" : 8
							}
,
							"displayName" : 							{
								"attrOrProp" : 2,
								"digest" : "DEPRECATED: Use the lower case 'displayname' instead",
								"isalias" : 0,
								"aliases" : [  ],
								"settable" : 1,
								"attachable" : 0,
								"isparam" : 0,
								"deprecated" : 1,
								"type" : "symbol",
								"label" : "Display Name"
							}
,
							"displayname" : 							{
								"attrOrProp" : 2,
								"digest" : "A more readable name for the parameter in an external RNBO target",
								"isalias" : 0,
								"aliases" : [  ],
								"settable" : 1,
								"attachable" : 0,
								"isparam" : 0,
								"deprecated" : 0,
								"type" : "symbol",
								"defaultValue" : "",
								"label" : "Display Name",
								"displayorder" : 14
							}
,
							"unit" : 							{
								"attrOrProp" : 2,
								"digest" : "A symbol to describe the unit of the parameter in an external RNBO target",
								"isalias" : 0,
								"aliases" : [  ],
								"settable" : 1,
								"attachable" : 0,
								"isparam" : 0,
								"deprecated" : 0,
								"type" : "symbol",
								"defaultValue" : "",
								"label" : "Unit",
								"displayorder" : 15
							}
,
							"tonormalized" : 							{
								"attrOrProp" : 2,
								"digest" : "Converts a real parameter value to its normalized form.",
								"isalias" : 0,
								"aliases" : [  ],
								"settable" : 1,
								"attachable" : 0,
								"isparam" : 0,
								"deprecated" : 0,
								"type" : "symbol",
								"label" : "To Normalized Expression",
								"displayorder" : 10
							}
,
							"fromnormalized" : 							{
								"attrOrProp" : 2,
								"digest" : "Converts a normalized parameter into its actual parameter value.",
								"isalias" : 0,
								"aliases" : [  ],
								"settable" : 1,
								"attachable" : 0,
								"isparam" : 0,
								"deprecated" : 0,
								"type" : "symbol",
								"label" : "From Normalized Expression",
								"displayorder" : 9
							}
,
							"order" : 							{
								"attrOrProp" : 2,
								"digest" : "Order in which initial parameter values will be sent out on patcher load. The order can be numeric or symbolic ('first' and 'last')",
								"isalias" : 0,
								"aliases" : [  ],
								"settable" : 1,
								"attachable" : 0,
								"isparam" : 0,
								"deprecated" : 0,
								"type" : "symbol",
								"defaultValue" : "0",
								"label" : "Restore Order",
								"displayorder" : 12
							}
,
							"displayorder" : 							{
								"attrOrProp" : 2,
								"digest" : "Order in which parameters will show up in a list of all parameters. The order can be numeric or symbolic ('first' and 'last')",
								"isalias" : 0,
								"aliases" : [  ],
								"settable" : 1,
								"attachable" : 0,
								"isparam" : 0,
								"deprecated" : 0,
								"type" : "symbol",
								"defaultValue" : "-",
								"label" : "Display Order",
								"displayorder" : 13
							}
,
							"sendinit" : 							{
								"attrOrProp" : 2,
								"digest" : "Send initial value",
								"isalias" : 0,
								"aliases" : [  ],
								"settable" : 1,
								"attachable" : 0,
								"isparam" : 0,
								"deprecated" : 0,
								"type" : "bool",
								"defaultValue" : "true",
								"label" : "Send Init",
								"displayorder" : 4
							}
,
							"ctlin" : 							{
								"attrOrProp" : 2,
								"digest" : "MIDI controller number to control this parameter.",
								"isalias" : 0,
								"aliases" : [  ],
								"settable" : 1,
								"attachable" : 0,
								"isparam" : 0,
								"deprecated" : 0,
								"type" : "number",
								"label" : "MIDI Controller Number.",
								"displayorder" : 16
							}
,
							"meta" : 							{
								"attrOrProp" : 2,
								"digest" : "A JSON formatted string containing metadata for use by the exported code",
								"isalias" : 0,
								"aliases" : [  ],
								"settable" : 1,
								"attachable" : 0,
								"isparam" : 0,
								"deprecated" : 0,
								"type" : "symbol",
								"defaultValue" : "",
								"label" : "Metadata",
								"displayorder" : 17
							}
,
							"nopreset" : 							{
								"attrOrProp" : 2,
								"digest" : "Do not add this value to the preset [DEPRECATED - USE @preset 0 instead].",
								"isalias" : 0,
								"aliases" : [  ],
								"settable" : 1,
								"attachable" : 0,
								"isparam" : 0,
								"deprecated" : 1,
								"type" : "bool",
								"defaultValue" : "false"
							}
,
							"preset" : 							{
								"attrOrProp" : 2,
								"digest" : "Add this value to the preset.",
								"isalias" : 0,
								"aliases" : [  ],
								"settable" : 1,
								"attachable" : 0,
								"isparam" : 0,
								"deprecated" : 0,
								"type" : "bool",
								"defaultValue" : "true",
								"label" : "Include In Preset",
								"displayorder" : 11
							}

						}
,
						"inputs" : [ 							{
								"name" : "value",
								"type" : "number",
								"digest" : "Parameter value",
								"hot" : 1,
								"docked" : 0
							}
, 							{
								"name" : "normalizedvalue",
								"type" : "number",
								"digest" : "Set value normalized. ",
								"docked" : 0
							}
 ],
						"outputs" : [ 							{
								"name" : "value",
								"type" : "number",
								"digest" : "Parameter value",
								"hot" : 1,
								"docked" : 0
							}
, 							{
								"name" : "normalized",
								"type" : "number",
								"digest" : "Normalized parameter value.",
								"docked" : 0
							}
 ],
						"helpname" : "param",
						"aliasOf" : "param",
						"classname" : "param",
						"operator" : 0,
						"versionId" : -1940971094,
						"changesPatcherIO" : 0
					}
,
					"text" : "param f1 40 @min 0 @max 48000",
					"varname" : "f1"
				}

			}
, 			{
				"box" : 				{
					"id" : "obj-1",
					"maxclass" : "newobj",
					"numinlets" : 2,
					"numoutlets" : 1,
					"outlettype" : [ "signal" ],
					"patching_rect" : [ 893.0, 383.0, 29.5, 23.0 ],
					"rnbo_classname" : "*~",
					"rnbo_serial" : 17,
					"rnbo_uniqueid" : "*~_obj-1",
					"text" : "*~"
				}

			}
, 			{
				"box" : 				{
					"id" : "obj-5",
					"maxclass" : "newobj",
					"numinlets" : 2,
					"numoutlets" : 1,
					"outlettype" : [ "signal" ],
					"patching_rect" : [ 800.0, 383.0, 29.5, 23.0 ],
					"rnbo_classname" : "*~",
					"rnbo_serial" : 18,
					"rnbo_uniqueid" : "*~_obj-5",
					"text" : "*~"
				}

			}
, 			{
				"box" : 				{
					"id" : "obj-15",
					"maxclass" : "newobj",
					"numinlets" : 2,
					"numoutlets" : 1,
					"outlettype" : [ "signal" ],
					"patching_rect" : [ 893.0, 329.0, 29.5, 23.0 ],
					"rnbo_classname" : "*~",
					"rnbo_serial" : 19,
					"rnbo_uniqueid" : "*~_obj-15",
					"text" : "*~"
				}

			}
, 			{
				"box" : 				{
					"id" : "obj-19",
					"maxclass" : "newobj",
					"numinlets" : 2,
					"numoutlets" : 1,
					"outlettype" : [ "signal" ],
					"patching_rect" : [ 800.0, 329.0, 29.5, 23.0 ],
					"rnbo_classname" : "*~",
					"rnbo_serial" : 20,
					"rnbo_uniqueid" : "*~_obj-19",
					"text" : "*~"
				}

			}
, 			{
				"box" : 				{
					"id" : "obj-20",
					"maxclass" : "newobj",
					"numinlets" : 2,
					"numoutlets" : 1,
					"outlettype" : [ "signal" ],
					"patching_rect" : [ 986.0, 283.0, 29.5, 23.0 ],
					"rnbo_classname" : "<~",
					"rnbo_serial" : 5,
					"rnbo_uniqueid" : "<~_obj-20",
					"text" : "<~"
				}

			}
, 			{
				"box" : 				{
					"id" : "obj-22",
					"maxclass" : "newobj",
					"numinlets" : 2,
					"numoutlets" : 1,
					"outlettype" : [ "signal" ],
					"patching_rect" : [ 953.0, 283.0, 29.5, 23.0 ],
					"rnbo_classname" : ">=~",
					"rnbo_serial" : 5,
					"rnbo_uniqueid" : ">=~_obj-22",
					"text" : ">=~"
				}

			}
, 			{
				"box" : 				{
					"id" : "obj-29",
					"maxclass" : "newobj",
					"numinlets" : 2,
					"numoutlets" : 3,
					"outlettype" : [ "signal", "signal", "signal" ],
					"patching_rect" : [ 800.0, 427.0, 208.0, 23.0 ],
					"rnbo_classname" : "ifft~",
					"rnbo_extra_attributes" : 					{
						"win_bufname" : "RNBODefaultFftWindow"
					}
,
					"rnbo_serial" : 5,
					"rnbo_uniqueid" : "ifft~_obj-29",
					"text" : "ifft~ 2048 4096 1536 @window hann"
				}

			}
, 			{
				"box" : 				{
					"id" : "obj-40",
					"maxclass" : "newobj",
					"numinlets" : 2,
					"numoutlets" : 3,
					"outlettype" : [ "signal", "signal", "signal" ],
					"patching_rect" : [ 800.0, 122.0, 205.0, 23.0 ],
					"rnbo_classname" : "fft~",
					"rnbo_extra_attributes" : 					{
						"win_bufname" : "RNBODefaultFftWindow"
					}
,
					"rnbo_serial" : 5,
					"rnbo_uniqueid" : "fft~_obj-40",
					"text" : "fft~ 2048 4096 1536 @window hann"
				}

			}
, 			{
				"box" : 				{
					"id" : "obj-64",
					"maxclass" : "newobj",
					"numinlets" : 2,
					"numoutlets" : 1,
					"outlettype" : [ "signal" ],
					"patching_rect" : [ 408.0, 383.0, 29.5, 23.0 ],
					"rnbo_classname" : "*~",
					"rnbo_serial" : 21,
					"rnbo_uniqueid" : "*~_obj-64",
					"text" : "*~"
				}

			}
, 			{
				"box" : 				{
					"id" : "obj-65",
					"maxclass" : "newobj",
					"numinlets" : 2,
					"numoutlets" : 1,
					"outlettype" : [ "signal" ],
					"patching_rect" : [ 315.0, 383.0, 29.5, 23.0 ],
					"rnbo_classname" : "*~",
					"rnbo_serial" : 22,
					"rnbo_uniqueid" : "*~_obj-65",
					"text" : "*~"
				}

			}
, 			{
				"box" : 				{
					"id" : "obj-66",
					"maxclass" : "newobj",
					"numinlets" : 2,
					"numoutlets" : 1,
					"outlettype" : [ "signal" ],
					"patching_rect" : [ 408.0, 329.0, 29.5, 23.0 ],
					"rnbo_classname" : "*~",
					"rnbo_serial" : 23,
					"rnbo_uniqueid" : "*~_obj-66",
					"text" : "*~"
				}

			}
, 			{
				"box" : 				{
					"id" : "obj-67",
					"maxclass" : "newobj",
					"numinlets" : 2,
					"numoutlets" : 1,
					"outlettype" : [ "signal" ],
					"patching_rect" : [ 315.0, 329.0, 29.5, 23.0 ],
					"rnbo_classname" : "*~",
					"rnbo_serial" : 24,
					"rnbo_uniqueid" : "*~_obj-67",
					"text" : "*~"
				}

			}
, 			{
				"box" : 				{
					"id" : "obj-68",
					"maxclass" : "newobj",
					"numinlets" : 2,
					"numoutlets" : 1,
					"outlettype" : [ "signal" ],
					"patching_rect" : [ 494.0, 283.0, 29.5, 23.0 ],
					"rnbo_classname" : "<~",
					"rnbo_serial" : 6,
					"rnbo_uniqueid" : "<~_obj-68",
					"text" : "<~"
				}

			}
, 			{
				"box" : 				{
					"id" : "obj-69",
					"maxclass" : "newobj",
					"numinlets" : 2,
					"numoutlets" : 1,
					"outlettype" : [ "signal" ],
					"patching_rect" : [ 462.5, 283.0, 29.5, 23.0 ],
					"rnbo_classname" : ">=~",
					"rnbo_serial" : 6,
					"rnbo_uniqueid" : ">=~_obj-69",
					"text" : ">=~"
				}

			}
, 			{
				"box" : 				{
					"id" : "obj-70",
					"maxclass" : "newobj",
					"numinlets" : 2,
					"numoutlets" : 3,
					"outlettype" : [ "signal", "signal", "signal" ],
					"patching_rect" : [ 315.0, 427.0, 201.0, 23.0 ],
					"rnbo_classname" : "ifft~",
					"rnbo_extra_attributes" : 					{
						"win_bufname" : "RNBODefaultFftWindow"
					}
,
					"rnbo_serial" : 6,
					"rnbo_uniqueid" : "ifft~_obj-70",
					"text" : "ifft~ 2048 4096 512 @window hann"
				}

			}
, 			{
				"box" : 				{
					"id" : "obj-71",
					"maxclass" : "newobj",
					"numinlets" : 2,
					"numoutlets" : 3,
					"outlettype" : [ "signal", "signal", "signal" ],
					"patching_rect" : [ 315.0, 122.0, 198.0, 23.0 ],
					"rnbo_classname" : "fft~",
					"rnbo_extra_attributes" : 					{
						"win_bufname" : "RNBODefaultFftWindow"
					}
,
					"rnbo_serial" : 6,
					"rnbo_uniqueid" : "fft~_obj-71",
					"text" : "fft~ 2048 4096 512 @window hann"
				}

			}
, 			{
				"box" : 				{
					"id" : "obj-7",
					"maxclass" : "newobj",
					"numinlets" : 1,
					"numoutlets" : 1,
					"outlettype" : [ "" ],
					"patching_rect" : [ 1255.0, 86.0, 56.0, 23.0 ],
					"rnbo_classname" : "loadbang",
					"rnbo_serial" : 2,
					"rnbo_uniqueid" : "loadbang_obj-7",
					"text" : "loadbang"
				}

			}
, 			{
				"box" : 				{
					"id" : "obj-36",
					"maxclass" : "newobj",
					"numinlets" : 2,
					"numoutlets" : 1,
					"outlettype" : [ "signal" ],
					"patching_rect" : [ 661.0, 383.0, 29.5, 23.0 ],
					"rnbo_classname" : "*~",
					"rnbo_serial" : 25,
					"rnbo_uniqueid" : "*~_obj-36",
					"text" : "*~"
				}

			}
, 			{
				"box" : 				{
					"id" : "obj-37",
					"maxclass" : "newobj",
					"numinlets" : 2,
					"numoutlets" : 1,
					"outlettype" : [ "signal" ],
					"patching_rect" : [ 568.0, 383.0, 29.5, 23.0 ],
					"rnbo_classname" : "*~",
					"rnbo_serial" : 26,
					"rnbo_uniqueid" : "*~_obj-37",
					"text" : "*~"
				}

			}
, 			{
				"box" : 				{
					"id" : "obj-38",
					"maxclass" : "newobj",
					"numinlets" : 2,
					"numoutlets" : 1,
					"outlettype" : [ "signal" ],
					"patching_rect" : [ 661.0, 329.0, 29.5, 23.0 ],
					"rnbo_classname" : "*~",
					"rnbo_serial" : 27,
					"rnbo_uniqueid" : "*~_obj-38",
					"text" : "*~"
				}

			}
, 			{
				"box" : 				{
					"id" : "obj-39",
					"maxclass" : "newobj",
					"numinlets" : 2,
					"numoutlets" : 1,
					"outlettype" : [ "signal" ],
					"patching_rect" : [ 568.0, 329.0, 29.5, 23.0 ],
					"rnbo_classname" : "*~",
					"rnbo_serial" : 28,
					"rnbo_uniqueid" : "*~_obj-39",
					"text" : "*~"
				}

			}
, 			{
				"box" : 				{
					"id" : "obj-34",
					"maxclass" : "newobj",
					"numinlets" : 2,
					"numoutlets" : 1,
					"outlettype" : [ "signal" ],
					"patching_rect" : [ 137.0, 383.0, 29.5, 23.0 ],
					"rnbo_classname" : "*~",
					"rnbo_serial" : 29,
					"rnbo_uniqueid" : "*~_obj-34",
					"text" : "*~"
				}

			}
, 			{
				"box" : 				{
					"id" : "obj-35",
					"maxclass" : "newobj",
					"numinlets" : 2,
					"numoutlets" : 1,
					"outlettype" : [ "signal" ],
					"patching_rect" : [ 54.0, 383.0, 29.5, 23.0 ],
					"rnbo_classname" : "*~",
					"rnbo_serial" : 30,
					"rnbo_uniqueid" : "*~_obj-35",
					"text" : "*~"
				}

			}
, 			{
				"box" : 				{
					"id" : "obj-33",
					"maxclass" : "newobj",
					"numinlets" : 2,
					"numoutlets" : 1,
					"outlettype" : [ "signal" ],
					"patching_rect" : [ 137.0, 329.0, 29.5, 23.0 ],
					"rnbo_classname" : "*~",
					"rnbo_serial" : 31,
					"rnbo_uniqueid" : "*~_obj-33",
					"text" : "*~"
				}

			}
, 			{
				"box" : 				{
					"id" : "obj-32",
					"maxclass" : "newobj",
					"numinlets" : 2,
					"numoutlets" : 1,
					"outlettype" : [ "signal" ],
					"patching_rect" : [ 54.0, 329.0, 29.5, 23.0 ],
					"rnbo_classname" : "*~",
					"rnbo_serial" : 32,
					"rnbo_uniqueid" : "*~_obj-32",
					"text" : "*~"
				}

			}
, 			{
				"box" : 				{
					"id" : "obj-30",
					"maxclass" : "newobj",
					"numinlets" : 2,
					"numoutlets" : 1,
					"outlettype" : [ "signal" ],
					"patching_rect" : [ 754.0, 283.0, 29.5, 23.0 ],
					"rnbo_classname" : "<~",
					"rnbo_serial" : 7,
					"rnbo_uniqueid" : "<~_obj-30",
					"text" : "<~"
				}

			}
, 			{
				"box" : 				{
					"id" : "obj-31",
					"maxclass" : "newobj",
					"numinlets" : 2,
					"numoutlets" : 1,
					"outlettype" : [ "signal" ],
					"patching_rect" : [ 721.0, 283.0, 29.5, 23.0 ],
					"rnbo_classname" : ">=~",
					"rnbo_serial" : 7,
					"rnbo_uniqueid" : ">=~_obj-31",
					"text" : ">=~"
				}

			}
, 			{
				"box" : 				{
					"id" : "obj-28",
					"maxclass" : "newobj",
					"numinlets" : 2,
					"numoutlets" : 1,
					"outlettype" : [ "" ],
					"patching_rect" : [ 1102.0, 192.0, 29.5, 23.0 ],
					"rnbo_classname" : "/",
					"rnbo_extra_attributes" : 					{
						"hot" : 0
					}
,
					"rnbo_serial" : 4,
					"rnbo_uniqueid" : "/_obj-28",
					"text" : "/ 1."
				}

			}
, 			{
				"box" : 				{
					"id" : "obj-27",
					"maxclass" : "newobj",
					"numinlets" : 2,
					"numoutlets" : 1,
					"outlettype" : [ "" ],
					"patching_rect" : [ 1060.0, 192.0, 29.5, 23.0 ],
					"rnbo_classname" : "/",
					"rnbo_extra_attributes" : 					{
						"hot" : 0
					}
,
					"rnbo_serial" : 5,
					"rnbo_uniqueid" : "/_obj-27",
					"text" : "/ 1."
				}

			}
, 			{
				"box" : 				{
					"id" : "obj-26",
					"maxclass" : "newobj",
					"numinlets" : 2,
					"numoutlets" : 1,
					"outlettype" : [ "signal" ],
					"patching_rect" : [ 219.0, 283.0, 29.5, 23.0 ],
					"rnbo_classname" : "<~",
					"rnbo_serial" : 8,
					"rnbo_uniqueid" : "<~_obj-26",
					"text" : "<~"
				}

			}
, 			{
				"box" : 				{
					"id" : "obj-25",
					"maxclass" : "newobj",
					"numinlets" : 2,
					"numoutlets" : 1,
					"outlettype" : [ "signal" ],
					"patching_rect" : [ 183.0, 283.0, 29.5, 23.0 ],
					"rnbo_classname" : ">=~",
					"rnbo_serial" : 8,
					"rnbo_uniqueid" : ">=~_obj-25",
					"text" : ">=~"
				}

			}
, 			{
				"box" : 				{
					"id" : "obj-24",
					"maxclass" : "newobj",
					"numinlets" : 2,
					"numoutlets" : 1,
					"outlettype" : [ "" ],
					"patching_rect" : [ 1255.0, 151.0, 48.0, 23.0 ],
					"rnbo_classname" : "/",
					"rnbo_extra_attributes" : 					{
						"hot" : 0
					}
,
					"rnbo_serial" : 6,
					"rnbo_uniqueid" : "/_obj-24",
					"text" : "/ 2048."
				}

			}
, 			{
				"box" : 				{
					"id" : "obj-23",
					"maxclass" : "newobj",
					"numinlets" : 1,
					"numoutlets" : 0,
					"patching_rect" : [ 54.0, 525.0, 43.0, 23.0 ],
					"rnbo_classname" : "out~",
					"rnbo_extra_attributes" : 					{
						"meta" : "",
						"comment" : ""
					}
,
					"rnbo_serial" : 2,
					"rnbo_uniqueid" : "out~_obj-23",
					"rnboinfo" : 					{
						"needsInstanceInfo" : 1,
						"argnames" : 						{
							"in1" : 							{
								"attrOrProp" : 1,
								"digest" : "signal sent to outlet with index 1",
								"isalias" : 0,
								"aliases" : [  ],
								"settable" : 0,
								"attachable" : 0,
								"isparam" : 0,
								"deprecated" : 0,
								"inlet" : 1,
								"type" : "signal"
							}
,
							"index" : 							{
								"attrOrProp" : 2,
								"digest" : "outlet number",
								"defaultarg" : 1,
								"isalias" : 0,
								"aliases" : [  ],
								"settable" : 1,
								"attachable" : 0,
								"isparam" : 0,
								"deprecated" : 0,
								"type" : "number",
								"mandatory" : 1
							}
,
							"comment" : 							{
								"attrOrProp" : 2,
								"digest" : "mouse over comment",
								"isalias" : 0,
								"aliases" : [  ],
								"settable" : 1,
								"attachable" : 0,
								"isparam" : 0,
								"deprecated" : 0,
								"type" : "symbol"
							}
,
							"meta" : 							{
								"attrOrProp" : 2,
								"digest" : "A JSON formatted string containing metadata for use by the exported code",
								"isalias" : 0,
								"aliases" : [  ],
								"settable" : 1,
								"attachable" : 0,
								"isparam" : 0,
								"deprecated" : 0,
								"type" : "symbol",
								"defaultValue" : "",
								"label" : "Metadata",
								"displayorder" : 3
							}

						}
,
						"inputs" : [ 							{
								"name" : "in1",
								"type" : "signal",
								"digest" : "signal sent to outlet with index 1",
								"displayName" : "",
								"hot" : 1,
								"docked" : 0
							}
 ],
						"outputs" : [  ],
						"helpname" : "out~",
						"aliasOf" : "out~",
						"classname" : "out~",
						"operator" : 0,
						"versionId" : 374499139,
						"changesPatcherIO" : 1
					}
,
					"text" : "out~ 1"
				}

			}
, 			{
				"box" : 				{
					"id" : "obj-21",
					"maxclass" : "newobj",
					"numinlets" : 1,
					"numoutlets" : 1,
					"outlettype" : [ "" ],
					"patching_rect" : [ 1255.0, 118.0, 66.0, 23.0 ],
					"rnbo_classname" : "samplerate",
					"rnbo_serial" : 2,
					"rnbo_uniqueid" : "samplerate_obj-21",
					"text" : "samplerate"
				}

			}
, 			{
				"box" : 				{
					"id" : "obj-18",
					"maxclass" : "newobj",
					"numinlets" : 1,
					"numoutlets" : 2,
					"outlettype" : [ "", "" ],
					"patching_rect" : [ 1060.0, 132.0, 61.0, 23.0 ],
					"rnbo_classname" : "unpack",
					"rnbo_extra_attributes" : 					{
						"length" : 0.0
					}
,
					"rnbo_serial" : 2,
					"rnbo_uniqueid" : "unpack_obj-18",
					"rnboinfo" : 					{
						"needsInstanceInfo" : 1,
						"argnames" : 						{
							"input" : 							{
								"attrOrProp" : 1,
								"digest" : "input list",
								"isalias" : 0,
								"aliases" : [  ],
								"attachable" : 0,
								"isparam" : 0,
								"deprecated" : 0,
								"inlet" : 1,
								"type" : "list"
							}
,
							"out1" : 							{
								"attrOrProp" : 1,
								"digest" : "list element 1",
								"defaultarg" : 1,
								"isalias" : 0,
								"aliases" : [  ],
								"settable" : 0,
								"attachable" : 0,
								"isparam" : 0,
								"deprecated" : 0,
								"outlet" : 1,
								"type" : "number",
								"defaultValue" : "0"
							}
,
							"out2" : 							{
								"attrOrProp" : 1,
								"digest" : "list element 2",
								"defaultarg" : 2,
								"isalias" : 0,
								"aliases" : [  ],
								"settable" : 0,
								"attachable" : 0,
								"isparam" : 0,
								"deprecated" : 0,
								"outlet" : 1,
								"type" : "number",
								"defaultValue" : "0"
							}
,
							"length" : 							{
								"attrOrProp" : 2,
								"digest" : "how many things to unpack",
								"isalias" : 0,
								"aliases" : [  ],
								"settable" : 1,
								"attachable" : 0,
								"isparam" : 0,
								"deprecated" : 0,
								"type" : "number"
							}
,
							"list" : 							{
								"attrOrProp" : 2,
								"digest" : "the list to initialize the unpack object with",
								"defaultarg" : 1,
								"isalias" : 0,
								"aliases" : [  ],
								"settable" : 1,
								"attachable" : 0,
								"isparam" : 0,
								"deprecated" : 0,
								"type" : "list"
							}

						}
,
						"inputs" : [ 							{
								"name" : "input",
								"type" : [ "bang", "list" ],
								"digest" : "input list",
								"hot" : 1,
								"docked" : 0
							}
 ],
						"outputs" : [ 							{
								"name" : "out1",
								"type" : "number",
								"digest" : "list element 1",
								"defaultarg" : 1,
								"docked" : 0
							}
, 							{
								"name" : "out2",
								"type" : "number",
								"digest" : "list element 2",
								"defaultarg" : 2,
								"docked" : 0
							}
 ],
						"helpname" : "unpack",
						"aliasOf" : "unpack",
						"classname" : "unpack",
						"operator" : 0,
						"versionId" : 1723330322,
						"changesPatcherIO" : 0
					}
,
					"text" : "unpack f f"
				}

			}
, 			{
				"box" : 				{
					"id" : "obj-17",
					"maxclass" : "newobj",
					"numinlets" : 2,
					"numoutlets" : 2,
					"outlettype" : [ "", "" ],
					"patching_rect" : [ 1060.0, 102.0, 57.0, 23.0 ],
					"rnbo_classname" : "list.sort",
					"rnbo_extra_attributes" : 					{
						"hot" : 0
					}
,
					"rnbo_serial" : 2,
					"rnbo_uniqueid" : "list.sort_obj-17",
					"text" : "list.sort 1"
				}

			}
, 			{
				"box" : 				{
					"id" : "obj-16",
					"maxclass" : "newobj",
					"numinlets" : 2,
					"numoutlets" : 3,
					"outlettype" : [ "signal", "signal", "signal" ],
					"patching_rect" : [ 568.0, 427.0, 208.0, 23.0 ],
					"rnbo_classname" : "ifft~",
					"rnbo_extra_attributes" : 					{
						"win_bufname" : "RNBODefaultFftWindow"
					}
,
					"rnbo_serial" : 7,
					"rnbo_uniqueid" : "ifft~_obj-16",
					"text" : "ifft~ 2048 4096 1024 @window hann"
				}

			}
, 			{
				"box" : 				{
					"id" : "obj-14",
					"maxclass" : "newobj",
					"numinlets" : 2,
					"numoutlets" : 1,
					"outlettype" : [ "" ],
					"patching_rect" : [ 1060.0, 73.0, 50.0, 23.0 ],
					"rnbo_classname" : "pak",
					"rnbo_extra_attributes" : 					{
						"length" : 0.0,
						"list" : ""
					}
,
					"rnbo_serial" : 2,
					"rnbo_uniqueid" : "pak_obj-14",
					"rnboinfo" : 					{
						"needsInstanceInfo" : 1,
						"argnames" : 						{
							"out" : 							{
								"attrOrProp" : 1,
								"digest" : "out",
								"isalias" : 0,
								"aliases" : [  ],
								"attachable" : 0,
								"isparam" : 0,
								"deprecated" : 0,
								"outlet" : 1,
								"type" : "list"
							}
,
							"in1" : 							{
								"attrOrProp" : 1,
								"digest" : "number to be list element 1",
								"defaultarg" : 1,
								"isalias" : 0,
								"aliases" : [  ],
								"settable" : 1,
								"attachable" : 0,
								"isparam" : 0,
								"deprecated" : 0,
								"inlet" : 1,
								"type" : "number",
								"defaultValue" : "0"
							}
,
							"in2" : 							{
								"attrOrProp" : 1,
								"digest" : "number to be list element 2",
								"defaultarg" : 2,
								"isalias" : 0,
								"aliases" : [  ],
								"settable" : 1,
								"attachable" : 0,
								"isparam" : 0,
								"deprecated" : 0,
								"inlet" : 1,
								"type" : "number",
								"defaultValue" : "0"
							}
,
							"length" : 							{
								"attrOrProp" : 2,
								"digest" : "how many things to pack",
								"isalias" : 0,
								"aliases" : [  ],
								"settable" : 1,
								"attachable" : 0,
								"isparam" : 0,
								"deprecated" : 0,
								"type" : "number"
							}
,
							"list" : 							{
								"attrOrProp" : 2,
								"digest" : "the list to initialize the {@objectname} object with",
								"isalias" : 0,
								"aliases" : [  ],
								"settable" : 1,
								"attachable" : 0,
								"isparam" : 0,
								"deprecated" : 0,
								"type" : "list"
							}

						}
,
						"inputs" : [ 							{
								"name" : "in1",
								"type" : "number",
								"digest" : "number to be list element 1",
								"defaultarg" : 1,
								"hot" : 1,
								"docked" : 0
							}
, 							{
								"name" : "in2",
								"type" : "number",
								"digest" : "number to be list element 2",
								"defaultarg" : 2,
								"hot" : 1,
								"docked" : 0
							}
 ],
						"outputs" : [ 							{
								"name" : "out",
								"type" : "list",
								"digest" : "out",
								"docked" : 0
							}
 ],
						"helpname" : "pak",
						"aliasOf" : "pack",
						"classname" : "pak",
						"operator" : 0,
						"versionId" : 2113152561,
						"changesPatcherIO" : 0
					}
,
					"text" : "pak f f"
				}

			}
, 			{
				"box" : 				{
					"id" : "obj-11",
					"maxclass" : "newobj",
					"numinlets" : 0,
					"numoutlets" : 1,
					"outlettype" : [ "signal" ],
					"patching_rect" : [ 54.0, 34.0, 130.0, 23.0 ],
					"rnbo_classname" : "in~",
					"rnbo_extra_attributes" : 					{
						"meta" : ""
					}
,
					"rnbo_serial" : 2,
					"rnbo_uniqueid" : "in~_obj-11",
					"rnboinfo" : 					{
						"needsInstanceInfo" : 1,
						"argnames" : 						{
							"out1" : 							{
								"attrOrProp" : 1,
								"digest" : "signal from inlet with index 1",
								"isalias" : 0,
								"aliases" : [  ],
								"settable" : 0,
								"attachable" : 0,
								"isparam" : 0,
								"deprecated" : 0,
								"outlet" : 1,
								"type" : "signal"
							}
,
							"index" : 							{
								"attrOrProp" : 2,
								"digest" : "inlet number",
								"defaultarg" : 1,
								"isalias" : 0,
								"aliases" : [  ],
								"settable" : 1,
								"attachable" : 0,
								"isparam" : 0,
								"deprecated" : 0,
								"type" : "number",
								"mandatory" : 1
							}
,
							"comment" : 							{
								"attrOrProp" : 2,
								"digest" : "mouse over comment",
								"isalias" : 0,
								"aliases" : [  ],
								"settable" : 1,
								"attachable" : 0,
								"isparam" : 0,
								"deprecated" : 0,
								"type" : "symbol"
							}
,
							"meta" : 							{
								"attrOrProp" : 2,
								"digest" : "A JSON formatted string containing metadata for use by the exported code",
								"isalias" : 0,
								"aliases" : [  ],
								"settable" : 1,
								"attachable" : 0,
								"isparam" : 0,
								"deprecated" : 0,
								"type" : "symbol",
								"defaultValue" : "",
								"label" : "Metadata",
								"displayorder" : 3
							}

						}
,
						"inputs" : [  ],
						"outputs" : [ 							{
								"name" : "out1",
								"type" : "signal",
								"digest" : "signal from inlet with index 1",
								"displayName" : "signal",
								"docked" : 0
							}
 ],
						"helpname" : "in~",
						"aliasOf" : "in~",
						"classname" : "in~",
						"operator" : 0,
						"versionId" : -176007711,
						"changesPatcherIO" : 1
					}
,
					"text" : "in~ 1 @comment signal"
				}

			}
, 			{
				"box" : 				{
					"id" : "obj-10",
					"maxclass" : "newobj",
					"numinlets" : 2,
					"numoutlets" : 3,
					"outlettype" : [ "signal", "signal", "signal" ],
					"patching_rect" : [ 54.0, 427.0, 187.0, 23.0 ],
					"rnbo_classname" : "ifft~",
					"rnbo_extra_attributes" : 					{
						"win_bufname" : "RNBODefaultFftWindow"
					}
,
					"rnbo_serial" : 8,
					"rnbo_uniqueid" : "ifft~_obj-10",
					"text" : "ifft~ 2048 4096 0 @window hann"
				}

			}
, 			{
				"box" : 				{
					"id" : "obj-9",
					"maxclass" : "newobj",
					"numinlets" : 2,
					"numoutlets" : 3,
					"outlettype" : [ "signal", "signal", "signal" ],
					"patching_rect" : [ 568.0, 122.0, 205.0, 23.0 ],
					"rnbo_classname" : "fft~",
					"rnbo_extra_attributes" : 					{
						"win_bufname" : "RNBODefaultFftWindow"
					}
,
					"rnbo_serial" : 7,
					"rnbo_uniqueid" : "fft~_obj-9",
					"text" : "fft~ 2048 4096 1024 @window hann"
				}

			}
, 			{
				"box" : 				{
					"id" : "obj-8",
					"maxclass" : "newobj",
					"numinlets" : 2,
					"numoutlets" : 3,
					"outlettype" : [ "signal", "signal", "signal" ],
					"patching_rect" : [ 54.0, 118.0, 184.0, 23.0 ],
					"rnbo_classname" : "fft~",
					"rnbo_extra_attributes" : 					{
						"win_bufname" : "RNBODefaultFftWindow"
					}
,
					"rnbo_serial" : 8,
					"rnbo_uniqueid" : "fft~_obj-8",
					"text" : "fft~ 2048 4096 0 @window hann"
				}

			}
 ],
		"lines" : [ 			{
				"patchline" : 				{
					"destination" : [ "obj-29", 1 ],
					"midpoints" : [ 902.5, 416.0, 998.5, 416.0 ],
					"source" : [ "obj-1", 0 ]
				}

			}
, 			{
				"patchline" : 				{
					"destination" : [ "obj-23", 0 ],
					"midpoints" : [ 63.5, 487.0, 63.5, 487.0 ],
					"source" : [ "obj-10", 0 ]
				}

			}
, 			{
				"patchline" : 				{
					"destination" : [ "obj-40", 0 ],
					"order" : 0,
					"source" : [ "obj-11", 0 ]
				}

			}
, 			{
				"patchline" : 				{
					"destination" : [ "obj-71", 0 ],
					"order" : 2,
					"source" : [ "obj-11", 0 ]
				}

			}
, 			{
				"patchline" : 				{
					"destination" : [ "obj-8", 0 ],
					"order" : 3,
					"source" : [ "obj-11", 0 ]
				}

			}
, 			{
				"patchline" : 				{
					"destination" : [ "obj-9", 0 ],
					"order" : 1,
					"source" : [ "obj-11", 0 ]
				}

			}
, 			{
				"patchline" : 				{
					"destination" : [ "obj-17", 0 ],
					"source" : [ "obj-14", 0 ]
				}

			}
, 			{
				"patchline" : 				{
					"destination" : [ "obj-1", 0 ],
					"source" : [ "obj-15", 0 ]
				}

			}
, 			{
				"patchline" : 				{
					"destination" : [ "obj-23", 0 ],
					"midpoints" : [ 577.5, 487.0, 63.5, 487.0 ],
					"source" : [ "obj-16", 0 ]
				}

			}
, 			{
				"patchline" : 				{
					"destination" : [ "obj-18", 0 ],
					"source" : [ "obj-17", 0 ]
				}

			}
, 			{
				"patchline" : 				{
					"destination" : [ "obj-27", 0 ],
					"source" : [ "obj-18", 0 ]
				}

			}
, 			{
				"patchline" : 				{
					"destination" : [ "obj-28", 0 ],
					"source" : [ "obj-18", 1 ]
				}

			}
, 			{
				"patchline" : 				{
					"destination" : [ "obj-5", 0 ],
					"source" : [ "obj-19", 0 ]
				}

			}
, 			{
				"patchline" : 				{
					"destination" : [ "obj-1", 1 ],
					"midpoints" : [ 995.5, 374.0, 913.0, 374.0 ],
					"order" : 0,
					"source" : [ "obj-20", 0 ]
				}

			}
, 			{
				"patchline" : 				{
					"destination" : [ "obj-5", 1 ],
					"midpoints" : [ 995.5, 373.0, 820.0, 373.0 ],
					"order" : 1,
					"source" : [ "obj-20", 0 ]
				}

			}
, 			{
				"patchline" : 				{
					"destination" : [ "obj-24", 0 ],
					"source" : [ "obj-21", 0 ]
				}

			}
, 			{
				"patchline" : 				{
					"destination" : [ "obj-15", 1 ],
					"midpoints" : [ 962.5, 317.0, 913.0, 317.0 ],
					"order" : 0,
					"source" : [ "obj-22", 0 ]
				}

			}
, 			{
				"patchline" : 				{
					"destination" : [ "obj-19", 1 ],
					"midpoints" : [ 962.5, 317.0, 820.0, 317.0 ],
					"order" : 1,
					"source" : [ "obj-22", 0 ]
				}

			}
, 			{
				"patchline" : 				{
					"destination" : [ "obj-27", 1 ],
					"midpoints" : [ 1264.5, 182.5, 1080.0, 182.5 ],
					"order" : 1,
					"source" : [ "obj-24", 0 ]
				}

			}
, 			{
				"patchline" : 				{
					"destination" : [ "obj-28", 1 ],
					"midpoints" : [ 1264.5, 182.5, 1122.0, 182.5 ],
					"order" : 0,
					"source" : [ "obj-24", 0 ]
				}

			}
, 			{
				"patchline" : 				{
					"destination" : [ "obj-32", 1 ],
					"midpoints" : [ 192.5, 312.0, 74.0, 312.0 ],
					"order" : 1,
					"source" : [ "obj-25", 0 ]
				}

			}
, 			{
				"patchline" : 				{
					"destination" : [ "obj-33", 1 ],
					"midpoints" : [ 192.5, 312.0, 157.0, 312.0 ],
					"order" : 0,
					"source" : [ "obj-25", 0 ]
				}

			}
, 			{
				"patchline" : 				{
					"destination" : [ "obj-34", 1 ],
					"midpoints" : [ 228.5, 364.0, 157.0, 364.0 ],
					"order" : 0,
					"source" : [ "obj-26", 0 ]
				}

			}
, 			{
				"patchline" : 				{
					"destination" : [ "obj-35", 1 ],
					"midpoints" : [ 228.5, 365.0, 74.0, 365.0 ],
					"order" : 1,
					"source" : [ "obj-26", 0 ]
				}

			}
, 			{
				"patchline" : 				{
					"destination" : [ "obj-22", 1 ],
					"midpoints" : [ 1069.5, 227.5, 973.0, 227.5 ],
					"order" : 0,
					"source" : [ "obj-27", 0 ]
				}

			}
, 			{
				"patchline" : 				{
					"destination" : [ "obj-25", 1 ],
					"midpoints" : [ 1069.5, 226.0, 203.0, 226.0 ],
					"order" : 3,
					"source" : [ "obj-27", 0 ]
				}

			}
, 			{
				"patchline" : 				{
					"destination" : [ "obj-31", 1 ],
					"midpoints" : [ 1069.5, 226.0, 741.0, 226.0 ],
					"order" : 1,
					"source" : [ "obj-27", 0 ]
				}

			}
, 			{
				"patchline" : 				{
					"destination" : [ "obj-69", 1 ],
					"midpoints" : [ 1069.5, 226.0, 482.5, 226.0 ],
					"order" : 2,
					"source" : [ "obj-27", 0 ]
				}

			}
, 			{
				"patchline" : 				{
					"destination" : [ "obj-20", 1 ],
					"midpoints" : [ 1111.5, 262.5, 1006.0, 262.5 ],
					"order" : 0,
					"source" : [ "obj-28", 0 ]
				}

			}
, 			{
				"patchline" : 				{
					"destination" : [ "obj-26", 1 ],
					"midpoints" : [ 1111.5, 262.0, 239.0, 262.0 ],
					"order" : 3,
					"source" : [ "obj-28", 0 ]
				}

			}
, 			{
				"patchline" : 				{
					"destination" : [ "obj-30", 1 ],
					"midpoints" : [ 1111.5, 262.0, 774.0, 262.0 ],
					"order" : 1,
					"source" : [ "obj-28", 0 ]
				}

			}
, 			{
				"patchline" : 				{
					"destination" : [ "obj-68", 1 ],
					"midpoints" : [ 1111.5, 261.0, 514.0, 261.0 ],
					"order" : 2,
					"source" : [ "obj-28", 0 ]
				}

			}
, 			{
				"patchline" : 				{
					"destination" : [ "obj-23", 0 ],
					"midpoints" : [ 809.5, 487.0, 63.5, 487.0 ],
					"source" : [ "obj-29", 0 ]
				}

			}
, 			{
				"patchline" : 				{
					"destination" : [ "obj-36", 1 ],
					"midpoints" : [ 763.5, 374.0, 681.0, 374.0 ],
					"order" : 0,
					"source" : [ "obj-30", 0 ]
				}

			}
, 			{
				"patchline" : 				{
					"destination" : [ "obj-37", 1 ],
					"midpoints" : [ 763.5, 373.0, 588.0, 373.0 ],
					"order" : 1,
					"source" : [ "obj-30", 0 ]
				}

			}
, 			{
				"patchline" : 				{
					"destination" : [ "obj-38", 1 ],
					"midpoints" : [ 730.5, 317.0, 681.0, 317.0 ],
					"order" : 0,
					"source" : [ "obj-31", 0 ]
				}

			}
, 			{
				"patchline" : 				{
					"destination" : [ "obj-39", 1 ],
					"midpoints" : [ 730.5, 317.0, 588.0, 317.0 ],
					"order" : 1,
					"source" : [ "obj-31", 0 ]
				}

			}
, 			{
				"patchline" : 				{
					"destination" : [ "obj-35", 0 ],
					"source" : [ "obj-32", 0 ]
				}

			}
, 			{
				"patchline" : 				{
					"destination" : [ "obj-34", 0 ],
					"source" : [ "obj-33", 0 ]
				}

			}
, 			{
				"patchline" : 				{
					"destination" : [ "obj-10", 1 ],
					"midpoints" : [ 146.5, 416.0, 231.5, 416.0 ],
					"source" : [ "obj-34", 0 ]
				}

			}
, 			{
				"patchline" : 				{
					"destination" : [ "obj-10", 0 ],
					"source" : [ "obj-35", 0 ]
				}

			}
, 			{
				"patchline" : 				{
					"destination" : [ "obj-16", 1 ],
					"midpoints" : [ 670.5, 416.0, 766.5, 416.0 ],
					"source" : [ "obj-36", 0 ]
				}

			}
, 			{
				"patchline" : 				{
					"destination" : [ "obj-16", 0 ],
					"source" : [ "obj-37", 0 ]
				}

			}
, 			{
				"patchline" : 				{
					"destination" : [ "obj-36", 0 ],
					"source" : [ "obj-38", 0 ]
				}

			}
, 			{
				"patchline" : 				{
					"destination" : [ "obj-37", 0 ],
					"source" : [ "obj-39", 0 ]
				}

			}
, 			{
				"patchline" : 				{
					"destination" : [ "obj-15", 0 ],
					"source" : [ "obj-40", 1 ]
				}

			}
, 			{
				"patchline" : 				{
					"destination" : [ "obj-19", 0 ],
					"source" : [ "obj-40", 0 ]
				}

			}
, 			{
				"patchline" : 				{
					"destination" : [ "obj-20", 0 ],
					"order" : 0,
					"source" : [ "obj-40", 2 ]
				}

			}
, 			{
				"patchline" : 				{
					"destination" : [ "obj-22", 0 ],
					"midpoints" : [ 995.5, 213.5, 962.5, 213.5 ],
					"order" : 1,
					"source" : [ "obj-40", 2 ]
				}

			}
, 			{
				"patchline" : 				{
					"destination" : [ "obj-14", 0 ],
					"source" : [ "obj-42", 0 ]
				}

			}
, 			{
				"patchline" : 				{
					"destination" : [ "obj-14", 1 ],
					"source" : [ "obj-43", 0 ]
				}

			}
, 			{
				"patchline" : 				{
					"destination" : [ "obj-29", 0 ],
					"source" : [ "obj-5", 0 ]
				}

			}
, 			{
				"patchline" : 				{
					"destination" : [ "obj-70", 1 ],
					"midpoints" : [ 417.5, 416.0, 506.5, 416.0 ],
					"source" : [ "obj-64", 0 ]
				}

			}
, 			{
				"patchline" : 				{
					"destination" : [ "obj-70", 0 ],
					"source" : [ "obj-65", 0 ]
				}

			}
, 			{
				"patchline" : 				{
					"destination" : [ "obj-64", 0 ],
					"source" : [ "obj-66", 0 ]
				}

			}
, 			{
				"patchline" : 				{
					"destination" : [ "obj-65", 0 ],
					"source" : [ "obj-67", 0 ]
				}

			}
, 			{
				"patchline" : 				{
					"destination" : [ "obj-64", 1 ],
					"midpoints" : [ 503.5, 374.0, 428.0, 374.0 ],
					"order" : 0,
					"source" : [ "obj-68", 0 ]
				}

			}
, 			{
				"patchline" : 				{
					"destination" : [ "obj-65", 1 ],
					"midpoints" : [ 503.5, 373.0, 335.0, 373.0 ],
					"order" : 1,
					"source" : [ "obj-68", 0 ]
				}

			}
, 			{
				"patchline" : 				{
					"destination" : [ "obj-66", 1 ],
					"midpoints" : [ 472.0, 317.0, 428.0, 317.0 ],
					"order" : 0,
					"source" : [ "obj-69", 0 ]
				}

			}
, 			{
				"patchline" : 				{
					"destination" : [ "obj-67", 1 ],
					"midpoints" : [ 472.0, 317.0, 335.0, 317.0 ],
					"order" : 1,
					"source" : [ "obj-69", 0 ]
				}

			}
, 			{
				"patchline" : 				{
					"destination" : [ "obj-21", 0 ],
					"source" : [ "obj-7", 0 ]
				}

			}
, 			{
				"patchline" : 				{
					"destination" : [ "obj-23", 0 ],
					"midpoints" : [ 324.5, 487.0, 63.5, 487.0 ],
					"source" : [ "obj-70", 0 ]
				}

			}
, 			{
				"patchline" : 				{
					"destination" : [ "obj-66", 0 ],
					"source" : [ "obj-71", 1 ]
				}

			}
, 			{
				"patchline" : 				{
					"destination" : [ "obj-67", 0 ],
					"source" : [ "obj-71", 0 ]
				}

			}
, 			{
				"patchline" : 				{
					"destination" : [ "obj-68", 0 ],
					"order" : 0,
					"source" : [ "obj-71", 2 ]
				}

			}
, 			{
				"patchline" : 				{
					"destination" : [ "obj-69", 0 ],
					"midpoints" : [ 503.5, 213.5, 472.0, 213.5 ],
					"order" : 1,
					"source" : [ "obj-71", 2 ]
				}

			}
, 			{
				"patchline" : 				{
					"destination" : [ "obj-25", 0 ],
					"midpoints" : [ 228.5, 211.5, 192.5, 211.5 ],
					"order" : 1,
					"source" : [ "obj-8", 2 ]
				}

			}
, 			{
				"patchline" : 				{
					"destination" : [ "obj-26", 0 ],
					"order" : 0,
					"source" : [ "obj-8", 2 ]
				}

			}
, 			{
				"patchline" : 				{
					"destination" : [ "obj-32", 0 ],
					"source" : [ "obj-8", 0 ]
				}

			}
, 			{
				"patchline" : 				{
					"destination" : [ "obj-33", 0 ],
					"source" : [ "obj-8", 1 ]
				}

			}
, 			{
				"patchline" : 				{
					"destination" : [ "obj-30", 0 ],
					"order" : 0,
					"source" : [ "obj-9", 2 ]
				}

			}
, 			{
				"patchline" : 				{
					"destination" : [ "obj-31", 0 ],
					"midpoints" : [ 763.5, 213.5, 730.5, 213.5 ],
					"order" : 1,
					"source" : [ "obj-9", 2 ]
				}

			}
, 			{
				"patchline" : 				{
					"destination" : [ "obj-38", 0 ],
					"source" : [ "obj-9", 1 ]
				}

			}
, 			{
				"patchline" : 				{
					"destination" : [ "obj-39", 0 ],
					"source" : [ "obj-9", 0 ]
				}

			}
 ],
		"default_bgcolor" : [ 0.031372549019608, 0.125490196078431, 0.211764705882353, 1.0 ],
		"color" : [ 0.929412, 0.929412, 0.352941, 1.0 ],
		"elementcolor" : [ 0.357540726661682, 0.515565991401672, 0.861786782741547, 1.0 ],
		"accentcolor" : [ 0.343034118413925, 0.506230533123016, 0.86220508813858, 1.0 ],
		"stripecolor" : [ 0.258338063955307, 0.352425158023834, 0.511919498443604, 1.0 ],
		"bgfillcolor_type" : "color",
		"bgfillcolor_color" : [ 0.031372549019608, 0.125490196078431, 0.211764705882353, 1.0 ],
		"bgfillcolor_color1" : [ 0.031372549019608, 0.125490196078431, 0.211764705882353, 1.0 ],
		"bgfillcolor_color2" : [ 0.263682, 0.004541, 0.038797, 1.0 ],
		"bgfillcolor_angle" : 270.0,
		"bgfillcolor_proportion" : 0.39,
		"bgfillcolor_autogradient" : 0.0
	}

}
